<?xml version="1.0" encoding="UTF-8" standalone="no"?>
<!DOCTYPE svg PUBLIC "-//W3C//DTD SVG 1.1//EN" "http://www.w3.org/Graphics/SVG/1.1/DTD/svg11.dtd">
<svg width="100%" height="100%" viewBox="0 0 1574 199" version="1.1" xmlns="http://www.w3.org/2000/svg" xmlns:xlink="http://www.w3.org/1999/xlink" xml:space="preserve" xmlns:serif="http://www.serif.com/" style="fill-rule:evenodd;clip-rule:evenodd;stroke-linejoin:round;stroke-miterlimit:2;">
    <g transform="matrix(1,0,0,1,-465.083,-570.429)">
        <rect id="Artboard1" x="465.083" y="570.429" width="1573.97" height="198.618" style="fill:none;"/>
        <g id="Artboard11" serif:id="Artboard1">
            <g transform="matrix(2.61708,0,0,2.61708,-726.378,-122.896)">
                <path d="M500.406,310.341L500.406,303.069L486.726,303.069L486.726,288.669L514.878,288.669L514.878,324.741L457.206,324.741L457.206,267.069L500.406,267.069L514.878,281.469L471.606,281.469L471.606,310.341L500.406,310.341ZM465.874,316.073L465.874,275.738L500.991,275.738L498.04,272.801L468.006,272.801C468.006,272.801 462.937,272.801 462.937,272.801L462.937,319.01L500.406,319.01L509.146,319.01L509.146,303.069C509.146,303.069 509.146,294.401 509.146,294.401L492.457,294.401C492.457,294.401 492.457,297.338 492.457,297.338L506.137,297.338L506.137,316.073L465.874,316.073Z" style="fill:rgb(141,113,84);"/>
                <path d="M536.334,303.069L536.334,339.069L521.934,324.669L521.934,266.997L536.334,281.469L536.334,288.669L565.134,288.669L565.134,281.397L536.334,281.397L536.334,266.997L579.606,266.997L579.606,303.069L565.35,303.069L579.606,317.253L579.606,324.669L565.71,324.669L544.038,303.069L536.334,303.069ZM530.602,283.835L527.665,280.884L527.665,303.069L527.665,322.295L530.602,325.232L530.602,297.338L546.406,297.338L568.078,318.938L573.172,318.938L561.307,307.132L565.35,297.338L573.874,297.338L573.874,288.669C573.874,288.669 573.874,272.729 573.874,272.729L542.065,272.729L542.065,275.666L570.865,275.666L570.865,294.401L530.602,294.401L530.602,283.835Z" style="fill:rgb(141,113,84);"/>
                <path d="M586.734,324.669L586.734,266.997L601.206,266.997L601.206,324.669L586.734,324.669ZM592.465,318.938C592.465,318.938 595.474,318.938 595.474,318.938C595.474,318.938 595.474,272.729 595.474,272.729C595.474,272.729 592.465,272.729 592.465,272.729L592.465,318.938Z" style="fill:rgb(141,113,84);"/>
                <path d="M622.806,281.469L622.806,324.741L608.406,324.741L608.406,267.069L651.606,267.069L666.078,281.469L666.078,324.741L651.606,324.741L651.606,281.469L622.806,281.469ZM657.337,280.858C657.337,292.313 657.337,319.01 657.337,319.01C657.337,319.01 660.346,319.01 660.346,319.01L660.346,283.852L657.337,280.858ZM652.191,275.738L649.24,272.801L621.294,272.801C621.294,272.801 614.137,272.801 614.137,272.801L614.137,319.01C614.137,319.01 617.074,319.01 617.074,319.01L617.074,275.738L652.191,275.738Z" style="fill:rgb(141,113,84);"/>
                <path d="M673.206,266.997L716.406,266.997L730.806,281.397L730.806,324.597L673.206,324.597L673.206,266.997ZM722.137,280.835L722.137,315.929L681.874,315.929L681.874,275.666L716.968,275.666L714.031,272.729L686.166,272.729C686.166,272.729 678.937,272.729 678.937,272.729L678.937,318.866L716.406,318.866C716.406,318.866 725.074,318.866 725.074,318.866L725.074,283.771L722.137,280.835ZM716.406,310.197L716.406,281.397L687.606,281.397L687.606,310.197L716.406,310.197Z" style="fill:rgb(141,113,84);"/>
                <path d="M795.606,324.669L737.934,324.669L737.934,266.997L752.334,266.997L752.334,310.269L759.534,310.269L759.534,266.997L773.934,266.997L773.934,310.269L781.134,310.269L781.134,266.997L795.606,266.997L795.606,324.669ZM781.134,318.938L789.874,318.938L789.874,310.269C789.874,310.269 789.874,272.729 789.874,272.729C789.874,272.729 786.865,272.729 786.865,272.729L786.865,316.001L768.202,316.001L768.202,272.729C768.202,272.729 765.265,272.729 765.265,272.729L765.265,316.001L746.602,316.001L746.602,272.729L743.665,272.729L743.665,318.938L781.134,318.938Z" style="fill:rgb(141,113,84);"/>
                <path d="M817.134,281.397L817.134,266.997L860.406,266.997L860.406,324.669L802.734,324.669L802.734,266.997L817.134,281.397L817.134,310.269L845.934,310.269L845.934,281.397L817.134,281.397ZM811.402,283.771L808.465,280.835L808.465,318.938L817.134,318.938L854.674,318.938L854.674,310.269C854.674,310.269 854.674,272.729 854.674,272.729L822.865,272.729L822.865,275.666L851.665,275.666L851.665,316.001L811.402,316.001L811.402,283.771Z" style="fill:rgb(141,113,84);"/>
                <path d="M881.934,303.069L881.934,339.069L867.534,324.669L867.534,266.997L881.934,281.469L881.934,288.669L910.734,288.669L910.734,281.397L881.934,281.397L881.934,266.997L925.206,266.997L925.206,303.069L910.95,303.069L925.206,317.253L925.206,324.669L911.31,324.669L889.638,303.069L881.934,303.069ZM876.202,283.835L873.265,280.884L873.265,303.069L873.265,322.295L876.202,325.232L876.202,297.338L892.006,297.338L913.678,318.938L918.772,318.938L906.907,307.132L910.95,297.338L919.474,297.338L919.474,288.669C919.474,288.669 919.474,272.729 919.474,272.729L887.665,272.729L887.665,275.666L916.465,275.666L916.465,294.401L876.202,294.401L876.202,283.835Z" style="fill:rgb(141,113,84);"/>
                <path d="M954.51,302.997L946.806,302.997L946.806,324.669L932.406,310.197L932.406,266.997L946.806,266.997L946.806,288.597L954.51,288.597L976.182,266.997L990.078,266.997L990.078,274.413L968.622,295.797L990.078,317.253L990.078,324.669L976.182,324.669L954.51,302.997ZM983.656,318.938L960.509,295.791L983.648,272.729L978.55,272.729L956.878,294.329L941.074,294.329L941.074,272.729L938.137,272.729L938.137,307.832L941.074,310.783L941.074,297.266L956.884,297.266L978.556,318.938L983.656,318.938Z" style="fill:rgb(141,113,84);"/>
                <path d="M1040.33,302.997L997.134,302.997L997.134,266.997L1054.81,266.997L1054.81,281.397L1011.53,281.397L1011.53,288.597L1054.81,288.597L1054.81,324.669L997.134,324.669L997.134,310.269L1040.33,310.269L1040.33,302.997ZM1002.87,297.266L1046.07,297.266L1046.07,316.001L1002.87,316.001C1002.87,316.001 1002.87,318.938 1002.87,318.938L1049.07,318.938L1049.07,294.329L1005.8,294.329L1005.8,275.666L1049.07,275.666C1049.07,275.666 1049.07,272.729 1049.07,272.729L1011.53,272.729L1002.87,272.729L1002.87,297.266Z" style="fill:rgb(141,113,84);"/>
            </g>
        </g>
    </g>
</svg>
