<?xml version="1.0" encoding="UTF-8" standalone="no"?>
<!DOCTYPE svg PUBLIC "-//W3C//DTD SVG 1.1//EN" "http://www.w3.org/Graphics/SVG/1.1/DTD/svg11.dtd">
<svg width="100%" height="100%" viewBox="0 0 64 64" version="1.1" xmlns="http://www.w3.org/2000/svg" xmlns:xlink="http://www.w3.org/1999/xlink" xml:space="preserve" xmlns:serif="http://www.serif.com/" style="fill-rule:evenodd;clip-rule:evenodd;stroke-linejoin:round;stroke-miterlimit:2;">
    <g transform="matrix(1,0,0,1,-0.0407489,0)">
        <g transform="matrix(1,0,0,1,0.0407489,0)">
            <rect id="CLOSE" x="0" y="0" width="64" height="64" style="fill:none;"/>
            <g id="CLOSE1" serif:id="CLOSE">
                <g transform="matrix(1,0,0,1,-0.0407489,0)">
                    <path d="M32.041,0.041L64,32L32.041,63.959L0.081,32L32.041,0.041ZM27.798,32L20.248,39.55L24.49,43.793L32.041,36.243L39.591,43.793L43.834,39.55L36.283,32L43.834,24.45L39.591,20.207L32.041,27.757L24.49,20.207L20.248,24.45L27.798,32Z" style="fill:rgb(137,115,82);"/>
                    <path d="M32.041,0.041L64,32L32.041,63.959L0.081,32L32.041,0.041ZM27.798,32L20.248,39.55L24.49,43.793L32.041,36.243L39.591,43.793L43.834,39.55L36.283,32L43.834,24.45L39.591,20.207L32.041,27.757L24.49,20.207L20.248,24.45L27.798,32ZM26.668,13.899L32.041,19.272L37.414,13.899L32.041,8.526L26.668,13.899ZM13.94,37.373L19.313,32L16.005,28.692L13.94,26.627L8.567,32L13.94,37.373ZM37.414,50.101L32.041,44.728L26.668,50.101L32.041,55.474L37.414,50.101ZM50.142,26.627L44.769,32L50.142,37.373L55.515,32L50.142,26.627Z" style="fill:rgb(137,114,82);"/>
                </g>
            </g>
        </g>
    </g>
</svg>
