<?xml version="1.0" encoding="UTF-8" standalone="no"?>
<!DOCTYPE svg PUBLIC "-//W3C//DTD SVG 1.1//EN" "http://www.w3.org/Graphics/SVG/1.1/DTD/svg11.dtd">
<svg width="100%" height="100%" viewBox="0 0 64 64" version="1.1" xmlns="http://www.w3.org/2000/svg" xmlns:xlink="http://www.w3.org/1999/xlink" xml:space="preserve" xmlns:serif="http://www.serif.com/" style="fill-rule:evenodd;clip-rule:evenodd;stroke-linejoin:round;stroke-miterlimit:2;">
    <g transform="matrix(1,0,0,1,0,-73.9288)">
        <g transform="matrix(1,0,0,1,0,73.9288)">
            <rect id="MINIMIZE" x="0" y="0" width="64" height="64" style="fill:none;"/>
            <g id="MINIMIZE1" serif:id="MINIMIZE">
                <g transform="matrix(1,0,0,1,0,-73.9288)">
                    <path d="M32,73.97L63.959,105.929L32,137.888L0.041,105.929L32,73.97ZM45.678,102.929L18.322,102.929L18.322,108.929L45.678,108.929L45.678,102.929Z" style="fill:rgb(137,115,82);"/>
                    <path d="M32,73.97L63.959,105.929L32,137.888L0.041,105.929L32,73.97ZM17.526,96.929L46.474,96.929L32,82.455L17.526,96.929ZM51.678,102.133L51.678,109.725L55.474,105.929L51.678,102.133ZM12.322,109.725L12.322,102.133L8.526,105.929L12.322,109.725ZM45.678,102.929L18.322,102.929L18.322,108.929L45.678,108.929L45.678,102.929ZM46.474,114.929L17.526,114.929L32,129.403L46.474,114.929Z" style="fill:rgb(137,114,82);"/>
                </g>
            </g>
        </g>
    </g>
</svg>
