<?xml version="1.0" encoding="UTF-8" standalone="no"?>
<!DOCTYPE svg PUBLIC "-//W3C//DTD SVG 1.1//EN" "http://www.w3.org/Graphics/SVG/1.1/DTD/svg11.dtd">
<svg width="100%" height="100%" viewBox="0 0 50 50" version="1.1" xmlns="http://www.w3.org/2000/svg" xmlns:xlink="http://www.w3.org/1999/xlink" xml:space="preserve" xmlns:serif="http://www.serif.com/" style="fill-rule:evenodd;clip-rule:evenodd;stroke-linecap:square;stroke-linejoin:round;stroke-miterlimit:1.5;">
    <g transform="matrix(1,0,0,1,-328,-1457)">
        <g transform="matrix(0.566081,0,0,0.679298,142.245,466.735)">
            <rect id="Artboard5" x="328.142" y="1457.78" width="88.327" height="73.605" style="fill:none;"/>
            <g id="Artboard51" serif:id="Artboard5">
                <g transform="matrix(0.143353,0,0,0.0666272,280.404,1445.36)">
                    <path d="M478.564,281.795L478.564,1195.69" style="fill:none;stroke:rgb(141,113,84);stroke-width:53.27px;"/>
                </g>
                <g transform="matrix(0.143353,0,0,0.0666272,289.374,1445.36)">
                    <path d="M478.564,281.795L478.564,1195.69" style="fill:none;stroke:rgb(141,113,84);stroke-width:53.27px;"/>
                </g>
                <g transform="matrix(0.143353,0,0,0.0666272,298.344,1445.36)">
                    <path d="M478.564,281.795L478.564,1195.69" style="fill:none;stroke:rgb(141,113,84);stroke-width:53.27px;"/>
                </g>
                <g transform="matrix(0.143353,0,0,0.0666272,307.315,1445.36)">
                    <path d="M478.564,281.795L478.564,1195.69" style="fill:none;stroke:rgb(141,113,84);stroke-width:53.27px;"/>
                </g>
                <g transform="matrix(0.143353,0,0,0.0666272,316.285,1445.36)">
                    <path d="M478.564,281.795L478.564,1195.69" style="fill:none;stroke:rgb(141,113,84);stroke-width:53.27px;"/>
                </g>
                <g transform="matrix(0.143353,0,0,0.0666272,325.255,1445.36)">
                    <path d="M478.564,281.795L478.564,1195.69" style="fill:none;stroke:rgb(141,113,84);stroke-width:53.27px;"/>
                </g>
                <g transform="matrix(-0.0716765,-0.103456,0.137673,-0.066238,303.941,1593.17)">
                    <path d="M478.564,463.016L478.564,1015.76" style="fill:none;stroke:rgb(141,113,84);stroke-width:40.85px;"/>
                </g>
            </g>
        </g>
    </g>
</svg>
