<?xml version="1.0" encoding="UTF-8" standalone="no"?>
<!DOCTYPE svg PUBLIC "-//W3C//DTD SVG 1.1//EN" "http://www.w3.org/Graphics/SVG/1.1/DTD/svg11.dtd">
<svg width="100%" height="100%" viewBox="0 0 50 50" version="1.1" xmlns="http://www.w3.org/2000/svg" xmlns:xlink="http://www.w3.org/1999/xlink" xml:space="preserve" xmlns:serif="http://www.serif.com/" style="fill-rule:evenodd;clip-rule:evenodd;stroke-linejoin:round;stroke-miterlimit:2;">
    <g transform="matrix(1,0,0,1,-328,-1586.13)">
        <g transform="matrix(0.566081,0,0,0.679298,142.245,595.863)">
            <rect id="Artboard5" x="328.142" y="1457.78" width="88.327" height="73.605" style="fill:none;"/>
            <g id="Artboard51" serif:id="Artboard5">
                <g transform="matrix(1.76653,0,0,1.47211,-251.28,-877.175)">
                    <g>
                        <path d="M342.326,1612.88L337.003,1618.2L329.926,1611.12L336.997,1604.05L342.321,1609.38L351.25,1609.38L351.25,1600.45L345.926,1595.12L352.997,1588.05L360.074,1595.13L354.75,1600.45L354.75,1609.38L363.674,1609.38L368.997,1604.05L376.074,1611.13L369.003,1618.2L363.679,1612.88L354.75,1612.88L354.75,1621.81L360.074,1627.13L353.003,1634.2L345.926,1627.12L351.25,1621.8L351.25,1612.88L342.326,1612.88ZM339.124,1611.13L336.997,1609C336.997,1609 334.876,1611.12 334.876,1611.12L337.003,1613.25L339.124,1611.13ZM353.003,1597.25L355.124,1595.13L352.997,1593C352.997,1593 350.876,1595.12 350.876,1595.12L353.003,1597.25ZM366.876,1611.12L369.003,1613.25L371.124,1611.13L368.997,1609C368.997,1609 367.896,1610.11 367.28,1610.72L366.876,1611.12ZM352.593,1625.41C351.978,1626.02 350.876,1627.12 350.876,1627.12L353.003,1629.25L355.124,1627.13L352.997,1625L352.593,1625.41Z" style="fill:rgb(141,113,84);"/>
                    </g>
                </g>
            </g>
        </g>
    </g>
</svg>
