<?xml version="1.0" encoding="UTF-8" standalone="no"?>
<!DOCTYPE svg PUBLIC "-//W3C//DTD SVG 1.1//EN" "http://www.w3.org/Graphics/SVG/1.1/DTD/svg11.dtd">
<svg width="100%" height="100%" viewBox="0 0 50 50" version="1.1" xmlns="http://www.w3.org/2000/svg" xmlns:xlink="http://www.w3.org/1999/xlink" xml:space="preserve" xmlns:serif="http://www.serif.com/" style="fill-rule:evenodd;clip-rule:evenodd;stroke-linejoin:round;stroke-miterlimit:2;">
    <g transform="matrix(1,0,0,1,-328,-1527.48)">
        <g transform="matrix(0.566081,0,0,0.679298,142.245,537.217)">
            <rect id="Artboard5" x="328.142" y="1457.78" width="88.327" height="73.605" style="fill:none;"/>
            <g id="Artboard51" serif:id="Artboard5">
                <g transform="matrix(1.76653,0,0,1.47211,-251.28,-790.841)">
                    <path d="M334.205,1546.57L328.693,1541.06L334.205,1535.54L334.205,1530.05L337.705,1530.05L337.705,1535.54L343.216,1541.06L337.705,1546.57L337.705,1574.91L334.205,1574.91L334.205,1546.57ZM334.205,1540.49C333.881,1540.82 333.642,1541.06 333.642,1541.06C333.642,1541.06 333.881,1541.29 334.205,1541.62L335.955,1543.37L338.267,1541.06C338.267,1541.06 338.028,1540.82 337.705,1540.49L335.954,1538.74L334.205,1540.49ZM350.388,1571.41L344.876,1565.9L350.388,1560.39L350.388,1530.05L353.888,1530.05L353.888,1560.39L359.4,1565.9L353.888,1571.41L353.888,1574.91L350.388,1574.91L350.388,1571.41ZM350.388,1565.34C350.065,1565.66 349.826,1565.9 349.826,1565.9C349.826,1565.9 350.065,1566.14 350.388,1566.46L352.138,1568.21L354.45,1565.9C354.45,1565.9 354.212,1565.66 353.888,1565.34L352.138,1563.59L350.388,1565.34ZM366.572,1556.89L361.06,1551.38L366.572,1545.87L366.572,1530.05L370.072,1530.05L370.072,1545.87L375.584,1551.38L370.072,1556.89L370.072,1574.91L366.572,1574.91L366.572,1556.89ZM366.572,1550.82C366.248,1551.14 366.01,1551.38 366.01,1551.38C366.01,1551.38 366.248,1551.62 366.572,1551.94L368.322,1553.69L370.634,1551.38C370.634,1551.38 370.396,1551.14 370.072,1550.82L368.322,1549.07L366.572,1550.82Z" style="fill:rgb(141,113,84);"/>
                </g>
            </g>
        </g>
    </g>
</svg>
